<?xml version="1.0" encoding="UTF-8"?>
<svg width="1440px" height="901px" viewBox="0 0 1440 901" version="1.1" xmlns="http://www.w3.org/2000/svg" xmlns:xlink="http://www.w3.org/1999/xlink">
    <!-- Generator: Sketch 63.1 (92452) - https://sketch.com -->
    <title>fondo</title>
    <desc>Created with Sketch.</desc>
    <g id="fondo" stroke="none" stroke-width="1" fill="none" fill-rule="evenodd">
        <g id="Group" transform="translate(103.000000, 87.000000)" fill="#FFD15C">
            <path d="M21.15625,0.60099 C25.53579,4.27586 27.62169,10.00711 26.62879,15.63625 C25.63589,21.2654 21.7154,25.93766 16.34419,27.89297 C10.97297,29.84827 4.96659,28.78928 0.58704,25.11441 L2.64396,22.66307 C6.14711,25.60255 10.95266,26.4497 15.24968,24.88591 C19.54668,23.32211 22.68349,19.58382 23.47736,15.08054 C24.27123,10.57726 22.60246,5.99182 19.09933,3.05233 L21.15625,0.60099 Z" id="Path"></path>
        </g>
        <g id="Group" transform="translate(336.000000, 273.000000)" stroke="#FF4C60" stroke-width="3">
            <polygon id="Path" points="11 0.3541 0.42705 21.5 21.57295 21.5"></polygon>
        </g>
        <g id="Group" transform="translate(178.000000, 608.000000)" stroke="#FF4C60" stroke-width="3">
            <polygon id="Path" points="11 0.3541 0.42705 21.5 21.57295 21.5"></polygon>
        </g>
        <g id="Group" transform="translate(117.000000, 793.000000)" fill="#FFD15C">
            <rect id="Rectangle" transform="translate(8.499998, 12.499997) rotate(30.000000) translate(-8.499998, -12.499997) " x="6.99999832" y="-2.9138839e-06" width="3" height="25" rx="1.5"></rect>
        </g>
        <g id="Group" transform="translate(579.000000, 81.000000)" fill="#6C6CE5">
            <rect id="Rectangle" transform="translate(8.499998, 12.499997) rotate(30.000000) translate(-8.499998, -12.499997) " x="6.99999832" y="-2.9138839e-06" width="3" height="25" rx="1.5"></rect>
        </g>
        <g id="Group" transform="translate(521.000000, 793.000000)" fill="#FF4C60">
            <path d="M0.5,16.499995 C0.5,10.78291 2.8825,5.50105 6.75,2.6433 C10.6175,-0.21444 15.3825,-0.21444 19.25,2.6433 C23.1175,5.50106 25.5,10.78292 25.5,16.499995 L23,16.499995 C23,11.92697 21.09375,7.70116 18,5.41465 C14.90625,3.12813 11.09375,3.12813 8,5.41465 C4.90625,7.70116 3,11.92697 3,16.499995 L0.5,16.499995 Z" id="Path"></path>
            <path d="M23.5,16.499995 C23.5,10.78291 25.8825,5.50105 29.75,2.6433 C33.6175,-0.21444 38.3825,-0.21444 42.25,2.6433 C46.1175,5.50106 48.5,10.78292 48.5,16.499995 L46,16.499995 C46,11.92697 44.09375,7.70116 41,5.41465 C37.90625,3.12813 34.09375,3.12813 31,5.41465 C27.90625,7.70116 26,11.92697 26,16.499995 L23.5,16.499995 Z" id="Path"></path>
        </g>
        <g id="Group" transform="translate(943.000000, 176.000000)" stroke="#FFD15C" stroke-width="3">
            <polygon id="Path" points="11 21.6459 0.42705 0.5 21.57295 0.5"></polygon>
        </g>
        <g id="Group" transform="translate(948.000000, 700.000000)" fill="#6C6CE5">
            <rect id="Rectangle" transform="translate(9.500000, 11.499998) rotate(-40.000000) translate(-9.500000, -11.499998) " x="8.00000023" y="-1.00000196" width="3" height="25" rx="1.5"></rect>
        </g>
        <g id="Group" transform="translate(1239.000000, 86.000000)" fill="#6C6CE5">
            <path d="M29.85641,16.0718 C26.99786,21.02294 21.7159,24.07237 15.99986,24.07204 C10.28381,24.07172 5.00176,21.02212 2.14345,16.07204 C-0.71485,11.12197 -0.71495,5.02294 2.14359,0.0718 L4.91487,1.6718 C2.62836,5.63216 2.62856,10.51182 4.91476,14.472 C7.20096,18.43217 11.42716,20.87217 15.99989,20.872 C20.5726,20.87182 24.79861,18.43216 27.08513,14.4718 L29.85641,16.0718 L29.85641,16.0718 Z" id="Path"></path>
        </g>
        <g id="Group" transform="translate(1035.000000, 401.000000)" fill="#44D7B6">
            <path d="M46.78878,17.19094 C44.83343,22.56324 40.7881,26.71171 36.17644,28.07434 C31.56477,29.43699 27.08714,27.80726 24.43028,23.7991 C21.77342,19.79093 21.34111,14.01274 23.29647,8.64044 L25.6457,9.49549 C24.08163,13.79273 24.4276,18.41567 26.55275,21.62242 C28.67789,24.82916 32.26047,26.13312 35.94967,25.04262 C39.63888,23.95212 42.87548,20.63313 44.43955,16.33589 L46.78878,17.19094 L46.78878,17.19094 Z" id="Path"></path>
            <path d="M25.17585,9.32448 C23.2205,14.69678 19.17517,18.84525 14.56351,20.20788 C9.95184,21.57052 5.47421,19.9408 2.81735,15.93263 C0.16049,11.92447 -0.27182,6.14628 1.68354,0.77398 L4.03277,1.62903 C2.4687,5.92627 2.81467,10.54921 4.93982,13.75595 C7.06496,16.9627 10.64754,18.26665 14.33674,17.17615 C18.02595,16.08565 21.26255,12.76667 22.82662,8.46943 L25.17585,9.32448 Z" id="Path"></path>
        </g>
        <g id="Group" transform="translate(1223.000000, 810.000000)" fill="#FFD15C">
            <path d="M32.36774,0.34317 C33.3605,5.9734 31.27442,11.70457 26.89547,15.37853 C22.51652,19.05249 16.50997,20.1116 11.13854,18.1569 C5.76711,16.2022 1.84665,11.53014 0.8539,5.8999 L4.00529,5.34423 C4.79939,9.84779 7.93612,13.5857 12.23301,15.14983 C16.52989,16.71396 21.33576,15.86656 24.83855,12.92713 C28.34133,9.98771 30.01045,5.4024 29.21635,0.89884 L32.36774,0.34317 Z" id="Path"></path>
        </g>
    </g>
</svg>